HIERARCHY
ROOT Hips
{
  OFFSET 5.72205e-005 65.662 3.42586
  CHANNELS 6 Xposition Yposition Zposition Zrotation Xrotation Yrotation
  JOINT Chest
  {
    OFFSET 0 8.7983 -4.7612
    CHANNELS 3 Zrotation Xrotation Yrotation
    JOINT Chest2
    {
      OFFSET 0 8.0291 0.4195
      CHANNELS 3 Zrotation Xrotation Yrotation
      JOINT Chest3
      {
        OFFSET 0 9.9351 -2.2114
        CHANNELS 3 Zrotation Xrotation Yrotation
        JOINT Neck
        {
          OFFSET 0 22.3885 -0.4656
          CHANNELS 3 Zrotation Xrotation Yrotation
          JOINT Head
          {
            OFFSET -0.0001 12.643 3.4389
            CHANNELS 3 Zrotation Xrotation Yrotation
            End Site
            {
              OFFSET 0.0001 17.6655 0.5274
            }
          }
        }
        JOINT LeftCollar
        {
          OFFSET 2.2603 21.606 7.4023
          CHANNELS 3 Zrotation Xrotation Yrotation
          JOINT LeftShoulder
          {
            OFFSET 13.5163 -1.1332 -5.0146
            CHANNELS 3 Zrotation Xrotation Yrotation
            JOINT LeftElbow
            {
              OFFSET -0.0995 -28.05 -0.2431
              CHANNELS 3 Zrotation Xrotation Yrotation
              JOINT LeftWrist
              {
                OFFSET 0.0679 -23.3996 -0.1402
                CHANNELS 3 Zrotation Xrotation Yrotation
                JOINT LeftFinger1
                {
                  OFFSET 0.7932 -9.069 2.5189
                  CHANNELS 3 Zrotation Xrotation Yrotation
                  JOINT LeftFinger11
                  {
                    OFFSET -0.8272 -3.3923 0.5977
                    CHANNELS 3 Zrotation Xrotation Yrotation
                    JOINT LeftFinger12
                    {
                      OFFSET -0.5649 -2.3158 0.4082
                      CHANNELS 3 Zrotation Xrotation Yrotation
                      End Site
                      {
                        OFFSET -0.4919 -1.6479 0.2673
                      }
                    }
                  }
                }
                JOINT LeftFinger2
                {
                  OFFSET 0.9159 -9.2044 0.2193
                  CHANNELS 3 Zrotation Xrotation Yrotation
                  JOINT LeftFinger21
                  {
                    OFFSET 0.0117 -4.1944 -0.0248
                    CHANNELS 3 Zrotation Xrotation Yrotation
                    JOINT LeftFinger22
                    {
                      OFFSET 0.0071 -2.3249 -0.0142
                      CHANNELS 3 Zrotation Xrotation Yrotation
                      End Site
                      {
                        OFFSET -0.1475 -2.0882 0.0028
                      }
                    }
                  }
                }
                JOINT LeftFinger3
                {
                  OFFSET 0.6113 -8.7231 -2.0637
                  CHANNELS 3 Zrotation Xrotation Yrotation
                  JOINT LeftFinger31
                  {
                    OFFSET -0.1927 -3.8059 -0.2383
                    CHANNELS 3 Zrotation Xrotation Yrotation
                    JOINT LeftFinger32
                    {
                      OFFSET -0.1091 -2.1688 -0.1362
                      CHANNELS 3 Zrotation Xrotation Yrotation
                      End Site
                      {
                        OFFSET -0.2358 -1.9176 -0.0906
                      }
                    }
                  }
                }
                JOINT LeftFinger4
                {
                  OFFSET -0.6151 -8.0947 -3.5641
                  CHANNELS 3 Zrotation Xrotation Yrotation
                  JOINT LeftFinger41
                  {
                    OFFSET -0.4882 -2.341 -0.6462
                    CHANNELS 3 Zrotation Xrotation Yrotation
                    JOINT LeftFinger42
                    {
                      OFFSET -0.3575 -1.7167 -0.4742
                      CHANNELS 3 Zrotation Xrotation Yrotation
                      End Site
                      {
                        OFFSET -0.4187 -1.5237 -0.3496
                      }
                    }
                  }
                }
                JOINT LeftFinger0
                {
                  OFFSET -1.42 -1.8761 1.4223
                  CHANNELS 3 Zrotation Xrotation Yrotation
                  JOINT LeftFinger01
                  {
                    OFFSET -1.1471 -3.4929 2.6334
                    CHANNELS 3 Zrotation Xrotation Yrotation
                    JOINT LeftFinger02
                    {
                      OFFSET -0.823 -2.3 1.6571
                      CHANNELS 3 Zrotation Xrotation Yrotation
                      End Site
                      {
                        OFFSET -0.5822 -1.6914 1.1582
                      }
                    }
                  }
                }
              }
            }
          }
        }
        JOINT RightCollar
        {
          OFFSET -2.2603 21.606 7.4023
          CHANNELS 3 Zrotation Xrotation Yrotation
          JOINT RightShoulder
          {
            OFFSET -13.5187 -1.1334 -5.0155
            CHANNELS 3 Zrotation Xrotation Yrotation
            JOINT RightElbow
            {
              OFFSET 0.0994 -28.0499 -0.2431
              CHANNELS 3 Zrotation Xrotation Yrotation
              JOINT RightWrist
              {
                OFFSET -0.0679 -23.3996 -0.1402
                CHANNELS 3 Zrotation Xrotation Yrotation
                JOINT RightFinger1
                {
                  OFFSET -0.7932 -9.0691 2.5189
                  CHANNELS 3 Zrotation Xrotation Yrotation
                  JOINT RightFinger11
                  {
                    OFFSET 0.8272 -3.3923 0.5977
                    CHANNELS 3 Zrotation Xrotation Yrotation
                    JOINT RightFinger12
                    {
                      OFFSET 0.565 -2.3158 0.4082
                      CHANNELS 3 Zrotation Xrotation Yrotation
                      End Site
                      {
                        OFFSET 0.4919 -1.6479 0.2673
                      }
                    }
                  }
                }
                JOINT RightFinger2
                {
                  OFFSET -0.916 -9.2044 0.2193
                  CHANNELS 3 Zrotation Xrotation Yrotation
                  JOINT RightFinger21
                  {
                    OFFSET -0.0117 -4.1944 -0.0248
                    CHANNELS 3 Zrotation Xrotation Yrotation
                    JOINT RightFinger22
                    {
                      OFFSET -0.0071 -2.3249 -0.0142
                      CHANNELS 3 Zrotation Xrotation Yrotation
                      End Site
                      {
                        OFFSET 0.1475 -2.0882 0.0028
                      }
                    }
                  }
                }
                JOINT RightFinger3
                {
                  OFFSET -0.6113 -8.7231 -2.0637
                  CHANNELS 3 Zrotation Xrotation Yrotation
                  JOINT RightFinger31
                  {
                    OFFSET 0.1927 -3.8059 -0.2383
                    CHANNELS 3 Zrotation Xrotation Yrotation
                    JOINT RightFinger32
                    {
                      OFFSET 0.1091 -2.1688 -0.1362
                      CHANNELS 3 Zrotation Xrotation Yrotation
                      End Site
                      {
                        OFFSET 0.2358 -1.9176 -0.0906
                      }
                    }
                  }
                }
                JOINT RightFinger4
                {
                  OFFSET 0.6151 -8.0947 -3.564
                  CHANNELS 3 Zrotation Xrotation Yrotation
                  JOINT RightFinger41
                  {
                    OFFSET 0.4882 -2.341 -0.6462
                    CHANNELS 3 Zrotation Xrotation Yrotation
                    JOINT RightFinger42
                    {
                      OFFSET 0.3574 -1.7166 -0.4742
                      CHANNELS 3 Zrotation Xrotation Yrotation
                      End Site
                      {
                        OFFSET 0.4187 -1.5237 -0.3496
                      }
                    }
                  }
                }
                JOINT RightFinger0
                {
                  OFFSET 1.4199 -1.8761 1.4221
                  CHANNELS 3 Zrotation Xrotation Yrotation
                  JOINT RightFinger01
                  {
                    OFFSET 1.1472 -3.4929 2.6336
                    CHANNELS 3 Zrotation Xrotation Yrotation
                    JOINT RightFinger02
                    {
                      OFFSET 0.8229 -2.3 1.6571
                      CHANNELS 3 Zrotation Xrotation Yrotation
                      End Site
                      {
                        OFFSET 0.5822 -1.6914 1.1582
                      }
                    }
                  }
                }
              }
            }
          }
        }
      }
    }
  }
  JOINT RightHip
  {
    OFFSET -9.412 3.9771 -0.7758
    CHANNELS 3 Zrotation Xrotation Yrotation
    JOINT RightKnee
    {
      OFFSET -0.7531 -40.938 0
      CHANNELS 3 Zrotation Xrotation Yrotation
      JOINT RightAnkle
      {
        OFFSET 0 -40.1986 0
        CHANNELS 3 Zrotation Xrotation Yrotation
        JOINT RightToe
        {
          OFFSET 0 -4.4182 9.239
          CHANNELS 3 Zrotation Xrotation Yrotation
          End Site
          {
            OFFSET 0 0 6.1981
          }
        }
      }
    }
  }
  JOINT LeftHip
  {
    OFFSET 9.4119 3.9773 -0.7758
    CHANNELS 3 Zrotation Xrotation Yrotation
    JOINT LeftKnee
    {
      OFFSET 0.7532 -40.9383 0
      CHANNELS 3 Zrotation Xrotation Yrotation
      JOINT LeftAnkle
      {
        OFFSET 0 -40.1986 0
        CHANNELS 3 Zrotation Xrotation Yrotation
        JOINT LeftToe
        {
          OFFSET 0 -4.4182 9.239
          CHANNELS 3 Zrotation Xrotation Yrotation
          End Site
          {
            OFFSET 0 0 6.1981
          }
        }
      }
    }
  }
}
MOTION
Frames:	4
Frame Time:	0.0333333
5.72205e-005 65.662 3.42586 0 0 -0 0 0 -0 0 0 -0 0 0 -0 0 0 -0 0 0 -0 0 0 -12.5014 88.1196 14.2451 10.6914 -0.00160068 -0.00239207 0.000740045 -8.4365e-005 7.00714e-005 -9.52055e-007 9.93923e-017 -1.98785e-016 -1.59028e-015 9.93923e-017 -5.96354e-016 -1.59028e-015 -9.93923e-017 -5.96354e-016 -1.59028e-015 9.93923e-017 -1.98785e-016 -1.59028e-015 -0.0128176 0.00232552 8.52707e-005 9.93923e-017 5.96354e-016 -0 9.93923e-017 -1.98785e-016 -1.59028e-015 -0.0160551 0.00299681 0.000857156 -2.48481e-016 0 3.18055e-015 9.93923e-017 -1.98785e-016 -1.59028e-015 -0.0125865 0.0031206 0.00282719 0 1.98785e-016 -0 9.93923e-017 -1.98785e-016 -1.59028e-015 9.93923e-017 -5.96354e-016 -1.59028e-015 -9.93923e-017 -5.96354e-016 -1.59028e-015 -0.865644 0.16582 7.03859 -88.0329 10.2057 -10.5567 0.0015593 -0.00248883 -0.000788628 7.87605e-005 4.10553e-005 1.24965e-005 -3.97569e-016 -7.95139e-016 3.18055e-015 -1.98785e-016 -3.97569e-016 3.18055e-015 -1.98785e-016 0 3.18055e-015 -3.97569e-016 -7.95139e-016 3.18055e-015 0.0129473 0.00231697 -8.70038e-005 9.93923e-017 -7.95139e-016 1.59028e-015 -3.97569e-016 -7.95139e-016 3.18055e-015 0.0163314 0.00303369 -0.000872333 3.97569e-016 7.95139e-016 -3.18055e-015 -3.97569e-016 -7.95139e-016 3.18055e-015 0.0145763 0.00367772 -0.00326275 9.93923e-017 -3.97569e-016 -0 -3.97569e-016 -7.95139e-016 3.18055e-015 -1.98785e-016 -3.97569e-016 3.18055e-015 -1.98785e-016 0 3.18055e-015 3.42482 1.32465 -0.0626183 0.000117508 0.717283 0.000978199 -3.4257 -2.04197 -0.0604716 6.47761e-025 0 -0 -3.42483 1.34017 0.0627307 -0.000193936 0.682302 -0.0013703 3.42574 -2.02253 0.0595886 -8.45714e-024 0 -7.40531e-025 
1.6708 -9.40698 60.3406 117.661 -75.3762 -63.373 0.17418 -6.04493 0.0600491 0.357803 -12.0897 0.139883 0.357811 -12.0897 0.139883 -8.20682e-007 -10.1232 2.96276e-006 3.74287e-006 23.3478 -1.237e-006 7.43838 -40.2414 4.07217 35.2568 -34.0219 20.1232 -153.739 -54.5464 160.068 -28.229 21.6309 73.6092 -9.48423e-006 -3.9798e-007 6.20001e-006 1.6972e-006 -1.5109e-007 1.5734e-006 -2.97272e-006 -1.03234e-005 -1.53943e-006 -9.48423e-006 -3.9798e-007 6.20001e-006 -0.0128323 0.0023308 8.89048e-005 -2.12215e-006 -1.357e-005 -1.56217e-006 -9.48423e-006 -3.9798e-007 6.20001e-006 -0.0160612 0.00300735 0.000872363 -5.82212e-006 -1.31916e-005 -5.79267e-006 -9.48423e-006 -3.9798e-007 6.20001e-006 -0.0125622 0.00311716 0.00282961 -3.41621e-006 -7.13559e-007 6.56528e-006 -9.48423e-006 -3.9798e-007 6.20001e-006 1.6972e-006 -1.5109e-007 1.5734e-006 -2.97272e-006 -1.03234e-005 -1.53943e-006 -15.9713 -2.78218 -39.1112 -25.2928 -42.9733 -4.30147 146.561 -32.3327 130.362 -36.9074 25.2653 -22.7119 6.36111e-015 3.18055e-015 2.38542e-015 9.54166e-015 -3.18055e-015 3.97569e-015 9.54166e-015 -6.36111e-015 2.38542e-015 6.36111e-015 3.18055e-015 2.38542e-015 0.0129649 0.00230637 -9.01285e-005 -3.18055e-015 -1.74931e-014 -0 6.36111e-015 3.18055e-015 2.38542e-015 0.0163317 0.00302212 -0.000869277 6.31615e-006 -2.6543e-006 -4.4413e-006 6.36111e-015 3.18055e-015 2.38542e-015 0.0145799 0.00367726 -0.00326643 -6.36111e-015 0 7.95139e-016 6.36111e-015 3.18055e-015 2.38542e-015 9.54166e-015 -3.18055e-015 3.97569e-015 9.54166e-015 -6.36111e-015 2.38542e-015 -2.91531 2.34112 -5.52983 -171.967 56.783 167.24 -6.23939 12.4223 -0.259638 -4.91075e-007 -1.61302e-007 -6.91151e-007 5.645 -2.45845 2.89415 131.351 85.1029 -130.033 10.7076 39.8695 1.94256 3.03331e-007 7.12666e-006 -2.9686e-007 
-0.381799 -4.74946 56.9399 -90.393 -89.7304 89.3547 0.164828 -5.40992 0.0497758 0.336669 -10.8196 0.116047 0.33667 -10.8197 0.116048 1.54717e-006 -5.94445 1.78998e-007 -2.90986e-007 20.2049 -1.38454e-007 6.81542 -38.5995 2.8712 38.281 -30.4485 19.3329 -148.672 -62.6098 168.278 -26.1051 20.2552 68.9418 3.18055e-015 3.97569e-016 -7.95139e-016 3.18055e-015 -1.19271e-015 -1.04362e-015 -2.8449e-033 -2.98177e-016 -5.46658e-016 3.18055e-015 3.97569e-016 -7.95139e-016 -0.0128208 0.00232795 8.3809e-005 2.41386e-033 -6.95746e-016 1.98785e-016 3.18055e-015 3.97569e-016 -7.95139e-016 -0.016057 0.00301104 0.000863207 -1.48354e-006 -1.15946e-005 -9.22022e-006 3.18055e-015 3.97569e-016 -7.95139e-016 -0.0126048 0.00313555 0.0028413 -4.90704e-006 8.04341e-008 -7.82706e-008 3.18055e-015 3.97569e-016 -7.95139e-016 3.18055e-015 -1.19271e-015 -1.04362e-015 -2.8449e-033 -2.98177e-016 -5.46658e-016 -15.1836 -3.95241 -36.2137 -29.1166 -39.1248 -4.50573 145.552 -42.192 130.12 -34.6777 23.7411 -21.2846 -4.41391e-032 3.18055e-015 7.95139e-016 0 0 -2.78299e-015 -1.59028e-015 0 -3.97569e-016 -4.41391e-032 3.18055e-015 7.95139e-016 0.0129244 0.00231536 -8.70754e-005 -1.1016e-006 -2.71249e-008 -2.10922e-006 -4.41391e-032 3.18055e-015 7.95139e-016 0.0163219 0.00304116 -0.000869097 3.77392e-006 -7.65382e-006 -5.76403e-007 -4.41391e-032 3.18055e-015 7.95139e-016 0.0145972 0.00368085 -0.00326815 7.95139e-016 -3.18055e-015 1.59028e-015 -4.41391e-032 3.18055e-015 7.95139e-016 0 0 -2.78299e-015 -1.59028e-015 0 -3.97569e-016 -2.45818 1.73406 -4.79404 -169.53 64.9539 165.728 -6.11402 11.7815 -0.0544882 9.93923e-016 -9.54166e-015 -9.93923e-016 5.06714 -2.18867 2.61695 47.6395 85.5538 -46.6462 10.4131 36.7968 1.57635 1.22233e-006 -4.5626e-008 2.71317e-006 
-0.381799 -4.74946 56.9399 -90.3963 -89.7304 89.3514 0.165443 -5.20501 0.0490085 0.337481 -10.4099 0.113892 0.337482 -10.4099 0.113892 -4.51749e-007 -2.66744 4.34842e-008 7.60423e-008 18.7693 1.17582e-007 7.60788 -39.4914 3.3836 38.2811 -30.4485 19.333 -148.672 -62.6098 168.278 -25.8458 20.3414 69.3447 7.75882e-033 1.98785e-016 -2.23633e-015 3.18055e-015 1.39149e-015 -2.33572e-015 6.36111e-015 6.95746e-016 -2.73329e-015 7.75882e-033 1.98785e-016 -2.23633e-015 -0.0128206 0.00233188 8.70956e-005 6.36111e-015 2.98177e-015 4.47266e-016 7.75882e-033 1.98785e-016 -2.23633e-015 -0.0160616 0.00299133 0.000857138 3.18055e-015 8.34896e-015 -2.70844e-014 7.75882e-033 1.98785e-016 -2.23633e-015 -0.0126088 0.00312135 0.002826 3.18055e-015 -1.98785e-016 5.01931e-015 7.75882e-033 1.98785e-016 -2.23633e-015 3.18055e-015 1.39149e-015 -2.33572e-015 6.36111e-015 6.95746e-016 -2.73329e-015 -15.5897 -5.07577 -36.4924 -29.1165 -39.1248 -4.50572 145.552 -42.192 130.12 -34.8256 24.0227 -21.5173 1.57367e-006 7.89617e-006 -4.79455e-006 7.95139e-016 -3.18055e-015 -9.93923e-016 1.65521e-031 3.18055e-015 -2.98177e-015 1.57367e-006 7.89617e-006 -4.79455e-006 0.0129536 0.00231506 -8.7283e-005 -2.20695e-031 6.36111e-015 1.98785e-015 1.57367e-006 7.89617e-006 -4.79455e-006 0.0163281 0.00302756 -0.000876379 7.95139e-016 0 1.98785e-016 1.57367e-006 7.89617e-006 -4.79455e-006 0.0146057 0.00369368 -0.00327185 -7.72434e-032 3.18055e-015 1.39149e-015 1.57367e-006 7.89617e-006 -4.79455e-006 7.95139e-016 -3.18055e-015 -9.93923e-016 1.65521e-031 3.18055e-015 -2.98177e-015 -2.45817 1.73423 -4.79404 -169.53 64.9541 165.727 -6.11401 11.7815 -0.0544796 -2.26135e-006 2.54831e-006 1.17382e-007 5.06714 -2.18874 2.61696 47.6403 85.5538 -46.647 10.4131 36.7968 1.57636 -9.68316e-007 -4.60729e-006 -1.57288e-006 
